<mxfile host="65bd71144e">
    <diagram id="hZeRhW0D8goVzrU_EnbR" name="Page-1">
        <mxGraphModel dx="1054" dy="60" grid="1" gridSize="10" guides="1" tooltips="1" connect="1" arrows="1" fold="1" page="1" pageScale="1" pageWidth="827" pageHeight="1169" math="0" shadow="0">
            <root>
                <mxCell id="0"/>
                <mxCell id="1" parent="0"/>
                <mxCell id="SUFD0tpNF5tw418baIag-1" value="user" style="swimlane;fontStyle=0;childLayout=stackLayout;horizontal=1;startSize=26;horizontalStack=0;resizeParent=1;resizeParentMax=0;resizeLast=0;collapsible=1;marginBottom=0;align=center;fontSize=14;" parent="1" vertex="1">
                    <mxGeometry x="40" y="190" width="160" height="210" as="geometry"/>
                </mxCell>
                <mxCell id="SUFD0tpNF5tw418baIag-2" value="id" style="text;strokeColor=none;fillColor=none;spacingLeft=4;spacingRight=4;overflow=hidden;rotatable=0;points=[[0,0.5],[1,0.5]];portConstraint=eastwest;fontSize=12;" parent="SUFD0tpNF5tw418baIag-1" vertex="1">
                    <mxGeometry y="26" width="160" height="30" as="geometry"/>
                </mxCell>
                <mxCell id="SUFD0tpNF5tw418baIag-3" value="email" style="text;strokeColor=none;fillColor=none;spacingLeft=4;spacingRight=4;overflow=hidden;rotatable=0;points=[[0,0.5],[1,0.5]];portConstraint=eastwest;fontSize=12;" parent="SUFD0tpNF5tw418baIag-1" vertex="1">
                    <mxGeometry y="56" width="160" height="30" as="geometry"/>
                </mxCell>
                <mxCell id="SUFD0tpNF5tw418baIag-5" value="passworld" style="text;strokeColor=none;fillColor=none;spacingLeft=4;spacingRight=4;overflow=hidden;rotatable=0;points=[[0,0.5],[1,0.5]];portConstraint=eastwest;fontSize=12;" parent="SUFD0tpNF5tw418baIag-1" vertex="1">
                    <mxGeometry y="86" width="160" height="34" as="geometry"/>
                </mxCell>
                <mxCell id="SUFD0tpNF5tw418baIag-4" value="role STRING" style="text;strokeColor=none;fillColor=none;spacingLeft=4;spacingRight=4;overflow=hidden;rotatable=0;points=[[0,0.5],[1,0.5]];portConstraint=eastwest;fontSize=12;" parent="SUFD0tpNF5tw418baIag-1" vertex="1">
                    <mxGeometry y="120" width="160" height="30" as="geometry"/>
                </mxCell>
                <mxCell id="RuoxXZoAFx81i13F3scx-2" value="is_activated" style="text;strokeColor=none;fillColor=none;spacingLeft=4;spacingRight=4;overflow=hidden;rotatable=0;points=[[0,0.5],[1,0.5]];portConstraint=eastwest;fontSize=12;" parent="SUFD0tpNF5tw418baIag-1" vertex="1">
                    <mxGeometry y="150" width="160" height="30" as="geometry"/>
                </mxCell>
                <mxCell id="RuoxXZoAFx81i13F3scx-3" value="activation_link" style="text;strokeColor=none;fillColor=none;spacingLeft=4;spacingRight=4;overflow=hidden;rotatable=0;points=[[0,0.5],[1,0.5]];portConstraint=eastwest;fontSize=12;" parent="SUFD0tpNF5tw418baIag-1" vertex="1">
                    <mxGeometry y="180" width="160" height="30" as="geometry"/>
                </mxCell>
                <mxCell id="SUFD0tpNF5tw418baIag-6" value="bascket" style="swimlane;fontStyle=0;childLayout=stackLayout;horizontal=1;startSize=26;horizontalStack=0;resizeParent=1;resizeParentMax=0;resizeLast=0;collapsible=1;marginBottom=0;align=center;fontSize=14;" parent="1" vertex="1">
                    <mxGeometry x="334" y="200" width="160" height="86" as="geometry"/>
                </mxCell>
                <mxCell id="SUFD0tpNF5tw418baIag-7" value="id" style="text;strokeColor=none;fillColor=none;spacingLeft=4;spacingRight=4;overflow=hidden;rotatable=0;points=[[0,0.5],[1,0.5]];portConstraint=eastwest;fontSize=12;" parent="SUFD0tpNF5tw418baIag-6" vertex="1">
                    <mxGeometry y="26" width="160" height="30" as="geometry"/>
                </mxCell>
                <mxCell id="SUFD0tpNF5tw418baIag-8" value="user_id" style="text;strokeColor=none;fillColor=none;spacingLeft=4;spacingRight=4;overflow=hidden;rotatable=0;points=[[0,0.5],[1,0.5]];portConstraint=eastwest;fontSize=12;" parent="SUFD0tpNF5tw418baIag-6" vertex="1">
                    <mxGeometry y="56" width="160" height="30" as="geometry"/>
                </mxCell>
                <mxCell id="SUFD0tpNF5tw418baIag-11" value="" style="edgeStyle=entityRelationEdgeStyle;fontSize=12;html=1;endArrow=ERmandOne;startArrow=ERmandOne;rounded=0;exitX=1;exitY=0.5;exitDx=0;exitDy=0;" parent="1" source="SUFD0tpNF5tw418baIag-3" target="SUFD0tpNF5tw418baIag-6" edge="1">
                    <mxGeometry width="100" height="100" relative="1" as="geometry">
                        <mxPoint x="314" y="370" as="sourcePoint"/>
                        <mxPoint x="414" y="270" as="targetPoint"/>
                    </mxGeometry>
                </mxCell>
                <mxCell id="SUFD0tpNF5tw418baIag-14" value="device" style="swimlane;fontStyle=0;childLayout=stackLayout;horizontal=1;startSize=26;horizontalStack=0;resizeParent=1;resizeParentMax=0;resizeLast=0;collapsible=1;marginBottom=0;align=center;fontSize=14;" parent="1" vertex="1">
                    <mxGeometry x="870" y="28" width="160" height="270" as="geometry"/>
                </mxCell>
                <mxCell id="SUFD0tpNF5tw418baIag-15" value="id" style="text;strokeColor=none;fillColor=none;spacingLeft=4;spacingRight=4;overflow=hidden;rotatable=0;points=[[0,0.5],[1,0.5]];portConstraint=eastwest;fontSize=12;" parent="SUFD0tpNF5tw418baIag-14" vertex="1">
                    <mxGeometry y="26" width="160" height="30" as="geometry"/>
                </mxCell>
                <mxCell id="SUFD0tpNF5tw418baIag-16" value="name&#10;&#10;&#10;&#10;&#10;&#10;&#10;&#10;&#10;&#10;" style="text;strokeColor=none;fillColor=none;spacingLeft=4;spacingRight=4;overflow=hidden;rotatable=0;points=[[0,0.5],[1,0.5]];portConstraint=eastwest;fontSize=12;" parent="SUFD0tpNF5tw418baIag-14" vertex="1">
                    <mxGeometry y="56" width="160" height="30" as="geometry"/>
                </mxCell>
                <mxCell id="4" value="seller_dscr&#10;" style="text;strokeColor=none;fillColor=none;spacingLeft=4;spacingRight=4;overflow=hidden;rotatable=0;points=[[0,0.5],[1,0.5]];portConstraint=eastwest;fontSize=12;" vertex="1" parent="SUFD0tpNF5tw418baIag-14">
                    <mxGeometry y="86" width="160" height="30" as="geometry"/>
                </mxCell>
                <mxCell id="SUFD0tpNF5tw418baIag-17" value="price" style="text;strokeColor=none;fillColor=none;spacingLeft=4;spacingRight=4;overflow=hidden;rotatable=0;points=[[0,0.5],[1,0.5]];portConstraint=eastwest;fontSize=12;" parent="SUFD0tpNF5tw418baIag-14" vertex="1">
                    <mxGeometry y="116" width="160" height="34" as="geometry"/>
                </mxCell>
                <mxCell id="SUFD0tpNF5tw418baIag-21" value="rate" style="text;strokeColor=none;fillColor=none;spacingLeft=4;spacingRight=4;overflow=hidden;rotatable=0;points=[[0,0.5],[1,0.5]];portConstraint=eastwest;fontSize=12;" parent="SUFD0tpNF5tw418baIag-14" vertex="1">
                    <mxGeometry y="150" width="160" height="30" as="geometry"/>
                </mxCell>
                <mxCell id="SUFD0tpNF5tw418baIag-23" value="img" style="text;strokeColor=none;fillColor=none;spacingLeft=4;spacingRight=4;overflow=hidden;rotatable=0;points=[[0,0.5],[1,0.5]];portConstraint=eastwest;fontSize=12;" parent="SUFD0tpNF5tw418baIag-14" vertex="1">
                    <mxGeometry y="180" width="160" height="30" as="geometry"/>
                </mxCell>
                <mxCell id="SUFD0tpNF5tw418baIag-24" value="type_id" style="text;strokeColor=none;fillColor=none;spacingLeft=4;spacingRight=4;overflow=hidden;rotatable=0;points=[[0,0.5],[1,0.5]];portConstraint=eastwest;fontSize=12;" parent="SUFD0tpNF5tw418baIag-14" vertex="1">
                    <mxGeometry y="210" width="160" height="30" as="geometry"/>
                </mxCell>
                <mxCell id="SUFD0tpNF5tw418baIag-22" value="brand_id" style="text;strokeColor=none;fillColor=none;spacingLeft=4;spacingRight=4;overflow=hidden;rotatable=0;points=[[0,0.5],[1,0.5]];portConstraint=eastwest;fontSize=12;" parent="SUFD0tpNF5tw418baIag-14" vertex="1">
                    <mxGeometry y="240" width="160" height="30" as="geometry"/>
                </mxCell>
                <mxCell id="SUFD0tpNF5tw418baIag-25" value="type" style="swimlane;fontStyle=0;childLayout=stackLayout;horizontal=1;startSize=26;horizontalStack=0;resizeParent=1;resizeParentMax=0;resizeLast=0;collapsible=1;marginBottom=0;align=center;fontSize=14;" parent="1" vertex="1">
                    <mxGeometry x="1170" y="330" width="160" height="86" as="geometry"/>
                </mxCell>
                <mxCell id="SUFD0tpNF5tw418baIag-26" value="id" style="text;strokeColor=none;fillColor=none;spacingLeft=4;spacingRight=4;overflow=hidden;rotatable=0;points=[[0,0.5],[1,0.5]];portConstraint=eastwest;fontSize=12;" parent="SUFD0tpNF5tw418baIag-25" vertex="1">
                    <mxGeometry y="26" width="160" height="30" as="geometry"/>
                </mxCell>
                <mxCell id="SUFD0tpNF5tw418baIag-27" value="name" style="text;strokeColor=none;fillColor=none;spacingLeft=4;spacingRight=4;overflow=hidden;rotatable=0;points=[[0,0.5],[1,0.5]];portConstraint=eastwest;fontSize=12;" parent="SUFD0tpNF5tw418baIag-25" vertex="1">
                    <mxGeometry y="56" width="160" height="30" as="geometry"/>
                </mxCell>
                <mxCell id="SUFD0tpNF5tw418baIag-30" value="brand" style="swimlane;fontStyle=0;childLayout=stackLayout;horizontal=1;startSize=26;horizontalStack=0;resizeParent=1;resizeParentMax=0;resizeLast=0;collapsible=1;marginBottom=0;align=center;fontSize=14;" parent="1" vertex="1">
                    <mxGeometry x="880" y="380" width="160" height="86" as="geometry"/>
                </mxCell>
                <mxCell id="SUFD0tpNF5tw418baIag-31" value="id" style="text;strokeColor=none;fillColor=none;spacingLeft=4;spacingRight=4;overflow=hidden;rotatable=0;points=[[0,0.5],[1,0.5]];portConstraint=eastwest;fontSize=12;" parent="SUFD0tpNF5tw418baIag-30" vertex="1">
                    <mxGeometry y="26" width="160" height="30" as="geometry"/>
                </mxCell>
                <mxCell id="SUFD0tpNF5tw418baIag-32" value="name" style="text;strokeColor=none;fillColor=none;spacingLeft=4;spacingRight=4;overflow=hidden;rotatable=0;points=[[0,0.5],[1,0.5]];portConstraint=eastwest;fontSize=12;" parent="SUFD0tpNF5tw418baIag-30" vertex="1">
                    <mxGeometry y="56" width="160" height="30" as="geometry"/>
                </mxCell>
                <mxCell id="SUFD0tpNF5tw418baIag-35" value="" style="edgeStyle=entityRelationEdgeStyle;fontSize=12;html=1;endArrow=ERoneToMany;rounded=0;exitX=0.377;exitY=-0.02;exitDx=0;exitDy=0;exitPerimeter=0;entryX=1;entryY=0.5;entryDx=0;entryDy=0;" parent="1" source="SUFD0tpNF5tw418baIag-25" target="SUFD0tpNF5tw418baIag-21" edge="1">
                    <mxGeometry width="100" height="100" relative="1" as="geometry">
                        <mxPoint x="210" y="460" as="sourcePoint"/>
                        <mxPoint x="1130" y="410" as="targetPoint"/>
                    </mxGeometry>
                </mxCell>
                <mxCell id="SUFD0tpNF5tw418baIag-36" value="" style="edgeStyle=entityRelationEdgeStyle;fontSize=12;html=1;endArrow=ERoneToMany;rounded=0;entryX=0.487;entryY=0.983;entryDx=0;entryDy=0;entryPerimeter=0;exitX=0.398;exitY=-0.006;exitDx=0;exitDy=0;exitPerimeter=0;" parent="1" source="SUFD0tpNF5tw418baIag-30" target="SUFD0tpNF5tw418baIag-22" edge="1">
                    <mxGeometry width="100" height="100" relative="1" as="geometry">
                        <mxPoint x="810" y="510" as="sourcePoint"/>
                        <mxPoint x="760" y="580" as="targetPoint"/>
                    </mxGeometry>
                </mxCell>
                <mxCell id="SUFD0tpNF5tw418baIag-37" value="" style="edgeStyle=entityRelationEdgeStyle;fontSize=12;html=1;endArrow=ERmany;startArrow=ERmany;rounded=0;exitX=1;exitY=0.5;exitDx=0;exitDy=0;" parent="1" source="SUFD0tpNF5tw418baIag-32" target="SUFD0tpNF5tw418baIag-25" edge="1">
                    <mxGeometry width="100" height="100" relative="1" as="geometry">
                        <mxPoint x="400" y="580" as="sourcePoint"/>
                        <mxPoint x="450" y="530" as="targetPoint"/>
                    </mxGeometry>
                </mxCell>
                <mxCell id="SUFD0tpNF5tw418baIag-38" value="device_info" style="swimlane;fontStyle=0;childLayout=stackLayout;horizontal=1;startSize=26;horizontalStack=0;resizeParent=1;resizeParentMax=0;resizeLast=0;collapsible=1;marginBottom=0;align=center;fontSize=14;" parent="1" vertex="1">
                    <mxGeometry x="1170" y="28" width="160" height="150" as="geometry"/>
                </mxCell>
                <mxCell id="SUFD0tpNF5tw418baIag-39" value="id" style="text;strokeColor=none;fillColor=none;spacingLeft=4;spacingRight=4;overflow=hidden;rotatable=0;points=[[0,0.5],[1,0.5]];portConstraint=eastwest;fontSize=12;" parent="SUFD0tpNF5tw418baIag-38" vertex="1">
                    <mxGeometry y="26" width="160" height="30" as="geometry"/>
                </mxCell>
                <mxCell id="SUFD0tpNF5tw418baIag-40" value="device_id" style="text;strokeColor=none;fillColor=none;spacingLeft=4;spacingRight=4;overflow=hidden;rotatable=0;points=[[0,0.5],[1,0.5]];portConstraint=eastwest;fontSize=12;" parent="SUFD0tpNF5tw418baIag-38" vertex="1">
                    <mxGeometry y="56" width="160" height="30" as="geometry"/>
                </mxCell>
                <mxCell id="SUFD0tpNF5tw418baIag-41" value="title" style="text;strokeColor=none;fillColor=none;spacingLeft=4;spacingRight=4;overflow=hidden;rotatable=0;points=[[0,0.5],[1,0.5]];portConstraint=eastwest;fontSize=12;" parent="SUFD0tpNF5tw418baIag-38" vertex="1">
                    <mxGeometry y="86" width="160" height="34" as="geometry"/>
                </mxCell>
                <mxCell id="SUFD0tpNF5tw418baIag-42" value="description" style="text;strokeColor=none;fillColor=none;spacingLeft=4;spacingRight=4;overflow=hidden;rotatable=0;points=[[0,0.5],[1,0.5]];portConstraint=eastwest;fontSize=12;" parent="SUFD0tpNF5tw418baIag-38" vertex="1">
                    <mxGeometry y="120" width="160" height="30" as="geometry"/>
                </mxCell>
                <mxCell id="SUFD0tpNF5tw418baIag-43" value="" style="edgeStyle=entityRelationEdgeStyle;fontSize=12;html=1;endArrow=ERoneToMany;rounded=0;exitX=1.024;exitY=0.076;exitDx=0;exitDy=0;exitPerimeter=0;" parent="1" source="SUFD0tpNF5tw418baIag-14" target="SUFD0tpNF5tw418baIag-39" edge="1">
                    <mxGeometry width="100" height="100" relative="1" as="geometry">
                        <mxPoint x="360" y="690" as="sourcePoint"/>
                        <mxPoint x="1060" y="220" as="targetPoint"/>
                    </mxGeometry>
                </mxCell>
                <mxCell id="SUFD0tpNF5tw418baIag-44" value="basket_device" style="swimlane;fontStyle=0;childLayout=stackLayout;horizontal=1;startSize=26;horizontalStack=0;resizeParent=1;resizeParentMax=0;resizeLast=0;collapsible=1;marginBottom=0;align=center;fontSize=14;" parent="1" vertex="1">
                    <mxGeometry x="600" y="200" width="160" height="150" as="geometry"/>
                </mxCell>
                <mxCell id="SUFD0tpNF5tw418baIag-45" value="id" style="text;strokeColor=none;fillColor=none;spacingLeft=4;spacingRight=4;overflow=hidden;rotatable=0;points=[[0,0.5],[1,0.5]];portConstraint=eastwest;fontSize=12;" parent="SUFD0tpNF5tw418baIag-44" vertex="1">
                    <mxGeometry y="26" width="160" height="30" as="geometry"/>
                </mxCell>
                <mxCell id="SUFD0tpNF5tw418baIag-46" value="device_id" style="text;strokeColor=none;fillColor=none;spacingLeft=4;spacingRight=4;overflow=hidden;rotatable=0;points=[[0,0.5],[1,0.5]];portConstraint=eastwest;fontSize=12;" parent="SUFD0tpNF5tw418baIag-44" vertex="1">
                    <mxGeometry y="56" width="160" height="30" as="geometry"/>
                </mxCell>
                <mxCell id="SUFD0tpNF5tw418baIag-48" value="basket_id" style="text;strokeColor=none;fillColor=none;spacingLeft=4;spacingRight=4;overflow=hidden;rotatable=0;points=[[0,0.5],[1,0.5]];portConstraint=eastwest;fontSize=12;" parent="SUFD0tpNF5tw418baIag-44" vertex="1">
                    <mxGeometry y="86" width="160" height="34" as="geometry"/>
                </mxCell>
                <mxCell id="YWA_Ww9ENnkFtok94tXo-1" value="device_amount" style="text;strokeColor=none;fillColor=none;spacingLeft=4;spacingRight=4;overflow=hidden;rotatable=0;points=[[0,0.5],[1,0.5]];portConstraint=eastwest;fontSize=12;" parent="SUFD0tpNF5tw418baIag-44" vertex="1">
                    <mxGeometry y="120" width="160" height="30" as="geometry"/>
                </mxCell>
                <mxCell id="SUFD0tpNF5tw418baIag-49" value="" style="edgeStyle=entityRelationEdgeStyle;fontSize=12;html=1;endArrow=ERoneToMany;rounded=0;exitX=1.019;exitY=0.14;exitDx=0;exitDy=0;exitPerimeter=0;" parent="1" source="SUFD0tpNF5tw418baIag-6" target="SUFD0tpNF5tw418baIag-44" edge="1">
                    <mxGeometry width="100" height="100" relative="1" as="geometry">
                        <mxPoint x="360" y="390" as="sourcePoint"/>
                        <mxPoint x="460" y="290" as="targetPoint"/>
                    </mxGeometry>
                </mxCell>
                <mxCell id="SUFD0tpNF5tw418baIag-50" value="" style="edgeStyle=entityRelationEdgeStyle;fontSize=12;html=1;endArrow=ERmandOne;startArrow=ERmandOne;rounded=0;exitX=0;exitY=0.5;exitDx=0;exitDy=0;" parent="1" source="SUFD0tpNF5tw418baIag-17" target="SUFD0tpNF5tw418baIag-44" edge="1">
                    <mxGeometry width="100" height="100" relative="1" as="geometry">
                        <mxPoint x="380" y="390" as="sourcePoint"/>
                        <mxPoint x="480" y="290" as="targetPoint"/>
                    </mxGeometry>
                </mxCell>
                <mxCell id="SUFD0tpNF5tw418baIag-52" value="rate" style="swimlane;fontStyle=0;childLayout=stackLayout;horizontal=1;startSize=26;horizontalStack=0;resizeParent=1;resizeParentMax=0;resizeLast=0;collapsible=1;marginBottom=0;align=center;fontSize=14;" parent="1" vertex="1">
                    <mxGeometry x="334" y="310" width="160" height="150" as="geometry"/>
                </mxCell>
                <mxCell id="SUFD0tpNF5tw418baIag-53" value="id" style="text;strokeColor=none;fillColor=none;spacingLeft=4;spacingRight=4;overflow=hidden;rotatable=0;points=[[0,0.5],[1,0.5]];portConstraint=eastwest;fontSize=12;" parent="SUFD0tpNF5tw418baIag-52" vertex="1">
                    <mxGeometry y="26" width="160" height="30" as="geometry"/>
                </mxCell>
                <mxCell id="SUFD0tpNF5tw418baIag-54" value="user_id" style="text;strokeColor=none;fillColor=none;spacingLeft=4;spacingRight=4;overflow=hidden;rotatable=0;points=[[0,0.5],[1,0.5]];portConstraint=eastwest;fontSize=12;" parent="SUFD0tpNF5tw418baIag-52" vertex="1">
                    <mxGeometry y="56" width="160" height="30" as="geometry"/>
                </mxCell>
                <mxCell id="SUFD0tpNF5tw418baIag-55" value="device_id" style="text;strokeColor=none;fillColor=none;spacingLeft=4;spacingRight=4;overflow=hidden;rotatable=0;points=[[0,0.5],[1,0.5]];portConstraint=eastwest;fontSize=12;" parent="SUFD0tpNF5tw418baIag-52" vertex="1">
                    <mxGeometry y="86" width="160" height="34" as="geometry"/>
                </mxCell>
                <mxCell id="SUFD0tpNF5tw418baIag-56" value="rate" style="text;strokeColor=none;fillColor=none;spacingLeft=4;spacingRight=4;overflow=hidden;rotatable=0;points=[[0,0.5],[1,0.5]];portConstraint=eastwest;fontSize=12;" parent="SUFD0tpNF5tw418baIag-52" vertex="1">
                    <mxGeometry y="120" width="160" height="30" as="geometry"/>
                </mxCell>
                <mxCell id="SUFD0tpNF5tw418baIag-57" value="" style="edgeStyle=entityRelationEdgeStyle;fontSize=12;html=1;endArrow=ERoneToMany;rounded=0;" parent="1" source="SUFD0tpNF5tw418baIag-5" target="SUFD0tpNF5tw418baIag-52" edge="1">
                    <mxGeometry width="100" height="100" relative="1" as="geometry">
                        <mxPoint x="330" y="460" as="sourcePoint"/>
                        <mxPoint x="490" y="420" as="targetPoint"/>
                    </mxGeometry>
                </mxCell>
                <mxCell id="SUFD0tpNF5tw418baIag-58" value="" style="edgeStyle=entityRelationEdgeStyle;fontSize=12;html=1;endArrow=ERoneToMany;rounded=0;exitX=0;exitY=0.5;exitDx=0;exitDy=0;" parent="1" source="SUFD0tpNF5tw418baIag-23" target="SUFD0tpNF5tw418baIag-52" edge="1">
                    <mxGeometry width="100" height="100" relative="1" as="geometry">
                        <mxPoint x="510" y="310" as="sourcePoint"/>
                        <mxPoint x="430" y="360" as="targetPoint"/>
                    </mxGeometry>
                </mxCell>
                <mxCell id="IkXxFlftjOC6oyxYw-Yh-1" value="order" style="swimlane;fontStyle=0;childLayout=stackLayout;horizontal=1;startSize=26;horizontalStack=0;resizeParent=1;resizeParentMax=0;resizeLast=0;collapsible=1;marginBottom=0;align=center;fontSize=14;" parent="1" vertex="1">
                    <mxGeometry x="334" y="80" width="160" height="86" as="geometry"/>
                </mxCell>
                <mxCell id="IkXxFlftjOC6oyxYw-Yh-2" value="id" style="text;strokeColor=none;fillColor=none;spacingLeft=4;spacingRight=4;overflow=hidden;rotatable=0;points=[[0,0.5],[1,0.5]];portConstraint=eastwest;fontSize=12;" parent="IkXxFlftjOC6oyxYw-Yh-1" vertex="1">
                    <mxGeometry y="26" width="160" height="30" as="geometry"/>
                </mxCell>
                <mxCell id="IkXxFlftjOC6oyxYw-Yh-3" value="user_id" style="text;strokeColor=none;fillColor=none;spacingLeft=4;spacingRight=4;overflow=hidden;rotatable=0;points=[[0,0.5],[1,0.5]];portConstraint=eastwest;fontSize=12;" parent="IkXxFlftjOC6oyxYw-Yh-1" vertex="1">
                    <mxGeometry y="56" width="160" height="30" as="geometry"/>
                </mxCell>
                <mxCell id="IkXxFlftjOC6oyxYw-Yh-4" value="order_device" style="swimlane;fontStyle=0;childLayout=stackLayout;horizontal=1;startSize=26;horizontalStack=0;resizeParent=1;resizeParentMax=0;resizeLast=0;collapsible=1;marginBottom=0;align=center;fontSize=14;" parent="1" vertex="1">
                    <mxGeometry x="600" y="28" width="160" height="150" as="geometry"/>
                </mxCell>
                <mxCell id="IkXxFlftjOC6oyxYw-Yh-5" value="id" style="text;strokeColor=none;fillColor=none;spacingLeft=4;spacingRight=4;overflow=hidden;rotatable=0;points=[[0,0.5],[1,0.5]];portConstraint=eastwest;fontSize=12;" parent="IkXxFlftjOC6oyxYw-Yh-4" vertex="1">
                    <mxGeometry y="26" width="160" height="30" as="geometry"/>
                </mxCell>
                <mxCell id="IkXxFlftjOC6oyxYw-Yh-6" value="device_id" style="text;strokeColor=none;fillColor=none;spacingLeft=4;spacingRight=4;overflow=hidden;rotatable=0;points=[[0,0.5],[1,0.5]];portConstraint=eastwest;fontSize=12;" parent="IkXxFlftjOC6oyxYw-Yh-4" vertex="1">
                    <mxGeometry y="56" width="160" height="30" as="geometry"/>
                </mxCell>
                <mxCell id="IkXxFlftjOC6oyxYw-Yh-7" value="order_id" style="text;strokeColor=none;fillColor=none;spacingLeft=4;spacingRight=4;overflow=hidden;rotatable=0;points=[[0,0.5],[1,0.5]];portConstraint=eastwest;fontSize=12;" parent="IkXxFlftjOC6oyxYw-Yh-4" vertex="1">
                    <mxGeometry y="86" width="160" height="34" as="geometry"/>
                </mxCell>
                <mxCell id="IkXxFlftjOC6oyxYw-Yh-8" value="device_amount" style="text;strokeColor=none;fillColor=none;spacingLeft=4;spacingRight=4;overflow=hidden;rotatable=0;points=[[0,0.5],[1,0.5]];portConstraint=eastwest;fontSize=12;" parent="IkXxFlftjOC6oyxYw-Yh-4" vertex="1">
                    <mxGeometry y="120" width="160" height="30" as="geometry"/>
                </mxCell>
                <mxCell id="IkXxFlftjOC6oyxYw-Yh-10" value="" style="edgeStyle=entityRelationEdgeStyle;fontSize=12;html=1;endArrow=ERoneToMany;rounded=0;entryX=0;entryY=0.5;entryDx=0;entryDy=0;exitX=1;exitY=0.5;exitDx=0;exitDy=0;" parent="1" source="IkXxFlftjOC6oyxYw-Yh-2" target="IkXxFlftjOC6oyxYw-Yh-7" edge="1">
                    <mxGeometry width="100" height="100" relative="1" as="geometry">
                        <mxPoint x="494" y="70" as="sourcePoint"/>
                        <mxPoint x="596.96" y="134.48" as="targetPoint"/>
                    </mxGeometry>
                </mxCell>
                <mxCell id="IkXxFlftjOC6oyxYw-Yh-11" value="" style="edgeStyle=entityRelationEdgeStyle;fontSize=12;html=1;endArrow=ERmandOne;startArrow=ERmandOne;rounded=0;entryX=1;entryY=0.5;entryDx=0;entryDy=0;exitX=-0.012;exitY=0.2;exitDx=0;exitDy=0;exitPerimeter=0;" parent="1" source="SUFD0tpNF5tw418baIag-15" target="IkXxFlftjOC6oyxYw-Yh-6" edge="1">
                    <mxGeometry width="100" height="100" relative="1" as="geometry">
                        <mxPoint x="910" y="130" as="sourcePoint"/>
                        <mxPoint x="800" y="95.08000000000001" as="targetPoint"/>
                    </mxGeometry>
                </mxCell>
                <mxCell id="IkXxFlftjOC6oyxYw-Yh-14" value="" style="edgeStyle=entityRelationEdgeStyle;fontSize=12;html=1;endArrow=ERoneToMany;rounded=0;entryX=0;entryY=0.5;entryDx=0;entryDy=0;exitX=1;exitY=0.5;exitDx=0;exitDy=0;" parent="1" source="SUFD0tpNF5tw418baIag-2" edge="1">
                    <mxGeometry width="100" height="100" relative="1" as="geometry">
                        <mxPoint x="220" y="148" as="sourcePoint"/>
                        <mxPoint x="336" y="120" as="targetPoint"/>
                    </mxGeometry>
                </mxCell>
                <mxCell id="RuoxXZoAFx81i13F3scx-4" value="token" style="swimlane;fontStyle=0;childLayout=stackLayout;horizontal=1;startSize=26;horizontalStack=0;resizeParent=1;resizeParentMax=0;resizeLast=0;collapsible=1;marginBottom=0;align=center;fontSize=14;" parent="1" vertex="1">
                    <mxGeometry x="40" y="20" width="160" height="116" as="geometry"/>
                </mxCell>
                <mxCell id="RuoxXZoAFx81i13F3scx-15" value="id" style="text;strokeColor=none;fillColor=none;spacingLeft=4;spacingRight=4;overflow=hidden;rotatable=0;points=[[0,0.5],[1,0.5]];portConstraint=eastwest;fontSize=12;" parent="RuoxXZoAFx81i13F3scx-4" vertex="1">
                    <mxGeometry y="26" width="160" height="30" as="geometry"/>
                </mxCell>
                <mxCell id="RuoxXZoAFx81i13F3scx-10" value="user_id" style="text;strokeColor=none;fillColor=none;spacingLeft=4;spacingRight=4;overflow=hidden;rotatable=0;points=[[0,0.5],[1,0.5]];portConstraint=eastwest;fontSize=12;" parent="RuoxXZoAFx81i13F3scx-4" vertex="1">
                    <mxGeometry y="56" width="160" height="30" as="geometry"/>
                </mxCell>
                <mxCell id="RuoxXZoAFx81i13F3scx-6" value="refresh_token" style="text;strokeColor=none;fillColor=none;spacingLeft=4;spacingRight=4;overflow=hidden;rotatable=0;points=[[0,0.5],[1,0.5]];portConstraint=eastwest;fontSize=12;" parent="RuoxXZoAFx81i13F3scx-4" vertex="1">
                    <mxGeometry y="86" width="160" height="30" as="geometry"/>
                </mxCell>
                <mxCell id="RuoxXZoAFx81i13F3scx-13" value="" style="edgeStyle=entityRelationEdgeStyle;fontSize=12;html=1;endArrow=ERmandOne;startArrow=ERmandOne;rounded=0;entryX=1;entryY=0.057;entryDx=0;entryDy=0;entryPerimeter=0;" parent="1" source="RuoxXZoAFx81i13F3scx-15" target="SUFD0tpNF5tw418baIag-1" edge="1">
                    <mxGeometry width="100" height="100" relative="1" as="geometry">
                        <mxPoint x="210" y="40" as="sourcePoint"/>
                        <mxPoint y="80" as="targetPoint"/>
                    </mxGeometry>
                </mxCell>
                <mxCell id="v_IM4eJg1uwsnEVhw5GO-1" value="info_pages" style="swimlane;fontStyle=0;childLayout=stackLayout;horizontal=1;startSize=20;horizontalStack=0;resizeParent=1;resizeParentMax=0;resizeLast=0;collapsible=1;marginBottom=0;align=center;fontSize=14;" parent="1" vertex="1">
                    <mxGeometry x="60" y="770" width="160" height="230" as="geometry">
                        <mxRectangle x="80" y="550" width="80" height="30" as="alternateBounds"/>
                    </mxGeometry>
                </mxCell>
                <mxCell id="v_IM4eJg1uwsnEVhw5GO-2" value="id" style="text;strokeColor=none;fillColor=none;spacingLeft=4;spacingRight=4;overflow=hidden;rotatable=0;points=[[0,0.5],[1,0.5]];portConstraint=eastwest;fontSize=12;" parent="v_IM4eJg1uwsnEVhw5GO-1" vertex="1">
                    <mxGeometry y="20" width="160" height="30" as="geometry"/>
                </mxCell>
                <mxCell id="v_IM4eJg1uwsnEVhw5GO-3" value="name" style="text;strokeColor=none;fillColor=none;spacingLeft=4;spacingRight=4;overflow=hidden;rotatable=0;points=[[0,0.5],[1,0.5]];portConstraint=eastwest;fontSize=12;" parent="v_IM4eJg1uwsnEVhw5GO-1" vertex="1">
                    <mxGeometry y="50" width="160" height="30" as="geometry"/>
                </mxCell>
                <mxCell id="rdArdedHqNd1tPleShdm-20" value="title &lt;arr&gt;" style="text;strokeColor=none;fillColor=none;spacingLeft=4;spacingRight=4;overflow=hidden;rotatable=0;points=[[0,0.5],[1,0.5]];portConstraint=eastwest;fontSize=12;" parent="v_IM4eJg1uwsnEVhw5GO-1" vertex="1">
                    <mxGeometry y="80" width="160" height="30" as="geometry"/>
                </mxCell>
                <mxCell id="rdArdedHqNd1tPleShdm-24" value="img &lt;arr&gt;" style="text;strokeColor=none;fillColor=none;spacingLeft=4;spacingRight=4;overflow=hidden;rotatable=0;points=[[0,0.5],[1,0.5]];portConstraint=eastwest;fontSize=12;" parent="v_IM4eJg1uwsnEVhw5GO-1" vertex="1">
                    <mxGeometry y="110" width="160" height="30" as="geometry"/>
                </mxCell>
                <mxCell id="rdArdedHqNd1tPleShdm-21" value="text &lt;arr&gt;" style="text;strokeColor=none;fillColor=none;spacingLeft=4;spacingRight=4;overflow=hidden;rotatable=0;points=[[0,0.5],[1,0.5]];portConstraint=eastwest;fontSize=12;" parent="v_IM4eJg1uwsnEVhw5GO-1" vertex="1">
                    <mxGeometry y="140" width="160" height="30" as="geometry"/>
                </mxCell>
                <mxCell id="rdArdedHqNd1tPleShdm-22" value="link &lt;arr&gt;" style="text;strokeColor=none;fillColor=none;spacingLeft=4;spacingRight=4;overflow=hidden;rotatable=0;points=[[0,0.5],[1,0.5]];portConstraint=eastwest;fontSize=12;" parent="v_IM4eJg1uwsnEVhw5GO-1" vertex="1">
                    <mxGeometry y="170" width="160" height="30" as="geometry"/>
                </mxCell>
                <mxCell id="rdArdedHqNd1tPleShdm-23" value="button_id &lt;arr&gt;" style="text;strokeColor=none;fillColor=none;spacingLeft=4;spacingRight=4;overflow=hidden;rotatable=0;points=[[0,0.5],[1,0.5]];portConstraint=eastwest;fontSize=12;" parent="v_IM4eJg1uwsnEVhw5GO-1" vertex="1">
                    <mxGeometry y="200" width="160" height="30" as="geometry"/>
                </mxCell>
                <mxCell id="v_IM4eJg1uwsnEVhw5GO-5" value="button_link" style="swimlane;fontStyle=0;childLayout=stackLayout;horizontal=1;startSize=20;horizontalStack=0;resizeParent=1;resizeParentMax=0;resizeLast=0;collapsible=1;marginBottom=0;align=center;fontSize=14;" parent="1" vertex="1">
                    <mxGeometry x="420" y="1010" width="160" height="110" as="geometry">
                        <mxRectangle x="80" y="550" width="80" height="30" as="alternateBounds"/>
                    </mxGeometry>
                </mxCell>
                <mxCell id="v_IM4eJg1uwsnEVhw5GO-6" value="id" style="text;strokeColor=none;fillColor=none;spacingLeft=4;spacingRight=4;overflow=hidden;rotatable=0;points=[[0,0.5],[1,0.5]];portConstraint=eastwest;fontSize=12;" parent="v_IM4eJg1uwsnEVhw5GO-5" vertex="1">
                    <mxGeometry y="20" width="160" height="30" as="geometry"/>
                </mxCell>
                <mxCell id="v_IM4eJg1uwsnEVhw5GO-7" value="text" style="text;strokeColor=none;fillColor=none;spacingLeft=4;spacingRight=4;overflow=hidden;rotatable=0;points=[[0,0.5],[1,0.5]];portConstraint=eastwest;fontSize=12;" parent="v_IM4eJg1uwsnEVhw5GO-5" vertex="1">
                    <mxGeometry y="50" width="160" height="30" as="geometry"/>
                </mxCell>
                <mxCell id="v_IM4eJg1uwsnEVhw5GO-8" value="link" style="text;strokeColor=none;fillColor=none;spacingLeft=4;spacingRight=4;overflow=hidden;rotatable=0;points=[[0,0.5],[1,0.5]];portConstraint=eastwest;fontSize=12;" parent="v_IM4eJg1uwsnEVhw5GO-5" vertex="1">
                    <mxGeometry y="80" width="160" height="30" as="geometry"/>
                </mxCell>
                <mxCell id="rdArdedHqNd1tPleShdm-1" value="info_help_categories" style="swimlane;fontStyle=0;childLayout=stackLayout;horizontal=1;startSize=20;horizontalStack=0;resizeParent=1;resizeParentMax=0;resizeLast=0;collapsible=1;marginBottom=0;align=center;fontSize=14;" parent="1" vertex="1">
                    <mxGeometry x="309" y="560" width="160" height="200" as="geometry">
                        <mxRectangle x="80" y="550" width="80" height="30" as="alternateBounds"/>
                    </mxGeometry>
                </mxCell>
                <mxCell id="rdArdedHqNd1tPleShdm-2" value="id" style="text;strokeColor=none;fillColor=none;spacingLeft=4;spacingRight=4;overflow=hidden;rotatable=0;points=[[0,0.5],[1,0.5]];portConstraint=eastwest;fontSize=12;" parent="rdArdedHqNd1tPleShdm-1" vertex="1">
                    <mxGeometry y="20" width="160" height="30" as="geometry"/>
                </mxCell>
                <mxCell id="2" value="order_id" style="text;strokeColor=none;fillColor=none;spacingLeft=4;spacingRight=4;overflow=hidden;rotatable=0;points=[[0,0.5],[1,0.5]];portConstraint=eastwest;fontSize=12;" parent="rdArdedHqNd1tPleShdm-1" vertex="1">
                    <mxGeometry y="50" width="160" height="30" as="geometry"/>
                </mxCell>
                <mxCell id="rdArdedHqNd1tPleShdm-3" value="title" style="text;strokeColor=none;fillColor=none;spacingLeft=4;spacingRight=4;overflow=hidden;rotatable=0;points=[[0,0.5],[1,0.5]];portConstraint=eastwest;fontSize=12;" parent="rdArdedHqNd1tPleShdm-1" vertex="1">
                    <mxGeometry y="80" width="160" height="30" as="geometry"/>
                </mxCell>
                <mxCell id="rdArdedHqNd1tPleShdm-4" value="banner" style="text;strokeColor=none;fillColor=none;spacingLeft=4;spacingRight=4;overflow=hidden;rotatable=0;points=[[0,0.5],[1,0.5]];portConstraint=eastwest;fontSize=12;" parent="rdArdedHqNd1tPleShdm-1" vertex="1">
                    <mxGeometry y="110" width="160" height="30" as="geometry"/>
                </mxCell>
                <mxCell id="rdArdedHqNd1tPleShdm-5" value="icon" style="text;strokeColor=none;fillColor=none;spacingLeft=4;spacingRight=4;overflow=hidden;rotatable=0;points=[[0,0.5],[1,0.5]];portConstraint=eastwest;fontSize=12;" parent="rdArdedHqNd1tPleShdm-1" vertex="1">
                    <mxGeometry y="140" width="160" height="30" as="geometry"/>
                </mxCell>
                <mxCell id="rdArdedHqNd1tPleShdm-6" value="link" style="text;strokeColor=none;fillColor=none;spacingLeft=4;spacingRight=4;overflow=hidden;rotatable=0;points=[[0,0.5],[1,0.5]];portConstraint=eastwest;fontSize=12;" parent="rdArdedHqNd1tPleShdm-1" vertex="1">
                    <mxGeometry y="170" width="160" height="30" as="geometry"/>
                </mxCell>
                <mxCell id="rdArdedHqNd1tPleShdm-8" value="info_help_questions" style="swimlane;fontStyle=0;childLayout=stackLayout;horizontal=1;startSize=20;horizontalStack=0;resizeParent=1;resizeParentMax=0;resizeLast=0;collapsible=1;marginBottom=0;align=center;fontSize=14;" parent="1" vertex="1">
                    <mxGeometry x="540" y="575" width="160" height="110" as="geometry">
                        <mxRectangle x="80" y="550" width="80" height="30" as="alternateBounds"/>
                    </mxGeometry>
                </mxCell>
                <mxCell id="rdArdedHqNd1tPleShdm-9" value="id" style="text;strokeColor=none;fillColor=none;spacingLeft=4;spacingRight=4;overflow=hidden;rotatable=0;points=[[0,0.5],[1,0.5]];portConstraint=eastwest;fontSize=12;" parent="rdArdedHqNd1tPleShdm-8" vertex="1">
                    <mxGeometry y="20" width="160" height="30" as="geometry"/>
                </mxCell>
                <mxCell id="3" value="order_id" style="text;strokeColor=none;fillColor=none;spacingLeft=4;spacingRight=4;overflow=hidden;rotatable=0;points=[[0,0.5],[1,0.5]];portConstraint=eastwest;fontSize=12;" parent="rdArdedHqNd1tPleShdm-8" vertex="1">
                    <mxGeometry y="50" width="160" height="30" as="geometry"/>
                </mxCell>
                <mxCell id="rdArdedHqNd1tPleShdm-10" value="question" style="text;strokeColor=none;fillColor=none;spacingLeft=4;spacingRight=4;overflow=hidden;rotatable=0;points=[[0,0.5],[1,0.5]];portConstraint=eastwest;fontSize=12;" parent="rdArdedHqNd1tPleShdm-8" vertex="1">
                    <mxGeometry y="80" width="160" height="30" as="geometry"/>
                </mxCell>
                <mxCell id="rdArdedHqNd1tPleShdm-25" value="info_help_popular" style="swimlane;fontStyle=0;childLayout=stackLayout;horizontal=1;startSize=20;horizontalStack=0;resizeParent=1;resizeParentMax=0;resizeLast=0;collapsible=1;marginBottom=0;align=center;fontSize=14;" parent="1" vertex="1">
                    <mxGeometry x="70" y="550" width="160" height="80" as="geometry">
                        <mxRectangle x="80" y="550" width="80" height="30" as="alternateBounds"/>
                    </mxGeometry>
                </mxCell>
                <mxCell id="rdArdedHqNd1tPleShdm-26" value="id" style="text;strokeColor=none;fillColor=none;spacingLeft=4;spacingRight=4;overflow=hidden;rotatable=0;points=[[0,0.5],[1,0.5]];portConstraint=eastwest;fontSize=12;" parent="rdArdedHqNd1tPleShdm-25" vertex="1">
                    <mxGeometry y="20" width="160" height="30" as="geometry"/>
                </mxCell>
                <mxCell id="rdArdedHqNd1tPleShdm-28" value="faq_id" style="text;strokeColor=none;fillColor=none;spacingLeft=4;spacingRight=4;overflow=hidden;rotatable=0;points=[[0,0.5],[1,0.5]];portConstraint=eastwest;fontSize=12;" parent="rdArdedHqNd1tPleShdm-25" vertex="1">
                    <mxGeometry y="50" width="160" height="30" as="geometry"/>
                </mxCell>
                <mxCell id="rdArdedHqNd1tPleShdm-30" value="" style="edgeStyle=entityRelationEdgeStyle;fontSize=12;html=1;endArrow=ERoneToMany;rounded=0;exitX=1.006;exitY=0.267;exitDx=0;exitDy=0;exitPerimeter=0;entryX=-0.025;entryY=0.1;entryDx=0;entryDy=0;entryPerimeter=0;" parent="1" source="v_IM4eJg1uwsnEVhw5GO-2" target="rdArdedHqNd1tPleShdm-6" edge="1">
                    <mxGeometry width="100" height="100" relative="1" as="geometry">
                        <mxPoint x="150" y="690" as="sourcePoint"/>
                        <mxPoint x="470" y="860" as="targetPoint"/>
                    </mxGeometry>
                </mxCell>
                <mxCell id="rdArdedHqNd1tPleShdm-31" value="" style="edgeStyle=entityRelationEdgeStyle;fontSize=12;html=1;endArrow=ERoneToMany;rounded=0;entryX=-0.012;entryY=0;entryDx=0;entryDy=0;entryPerimeter=0;" parent="1" source="rdArdedHqNd1tPleShdm-3" target="rdArdedHqNd1tPleShdm-10" edge="1">
                    <mxGeometry width="100" height="100" relative="1" as="geometry">
                        <mxPoint x="480" y="855.01" as="sourcePoint"/>
                        <mxPoint x="564.04" y="760" as="targetPoint"/>
                    </mxGeometry>
                </mxCell>
                <mxCell id="rdArdedHqNd1tPleShdm-33" value="info_help_related_&#10;questions" style="swimlane;fontStyle=0;childLayout=stackLayout;horizontal=1;startSize=40;horizontalStack=0;resizeParent=1;resizeParentMax=0;resizeLast=0;collapsible=1;marginBottom=0;align=center;fontSize=14;direction=east;" parent="1" vertex="1">
                    <mxGeometry x="1030" y="630" width="160" height="100" as="geometry">
                        <mxRectangle x="80" y="550" width="80" height="30" as="alternateBounds"/>
                    </mxGeometry>
                </mxCell>
                <mxCell id="rdArdedHqNd1tPleShdm-34" value="id" style="text;strokeColor=none;fillColor=none;spacingLeft=4;spacingRight=4;overflow=hidden;rotatable=0;points=[[0,0.5],[1,0.5]];portConstraint=eastwest;fontSize=12;" parent="rdArdedHqNd1tPleShdm-33" vertex="1">
                    <mxGeometry y="40" width="160" height="30" as="geometry"/>
                </mxCell>
                <mxCell id="rdArdedHqNd1tPleShdm-35" value="faq_id" style="text;strokeColor=none;fillColor=none;spacingLeft=4;spacingRight=4;overflow=hidden;rotatable=0;points=[[0,0.5],[1,0.5]];portConstraint=eastwest;fontSize=12;" parent="rdArdedHqNd1tPleShdm-33" vertex="1">
                    <mxGeometry y="70" width="160" height="30" as="geometry"/>
                </mxCell>
                <mxCell id="rdArdedHqNd1tPleShdm-37" value="info_help_answers" style="swimlane;fontStyle=0;childLayout=stackLayout;horizontal=1;startSize=20;horizontalStack=0;resizeParent=1;resizeParentMax=0;resizeLast=0;collapsible=1;marginBottom=0;align=center;fontSize=14;" parent="1" vertex="1">
                    <mxGeometry x="780" y="560" width="160" height="110" as="geometry">
                        <mxRectangle x="80" y="550" width="80" height="30" as="alternateBounds"/>
                    </mxGeometry>
                </mxCell>
                <mxCell id="rdArdedHqNd1tPleShdm-38" value="id" style="text;strokeColor=none;fillColor=none;spacingLeft=4;spacingRight=4;overflow=hidden;rotatable=0;points=[[0,0.5],[1,0.5]];portConstraint=eastwest;fontSize=12;" parent="rdArdedHqNd1tPleShdm-37" vertex="1">
                    <mxGeometry y="20" width="160" height="30" as="geometry"/>
                </mxCell>
                <mxCell id="rdArdedHqNd1tPleShdm-39" value="title" style="text;strokeColor=none;fillColor=none;spacingLeft=4;spacingRight=4;overflow=hidden;rotatable=0;points=[[0,0.5],[1,0.5]];portConstraint=eastwest;fontSize=12;" parent="rdArdedHqNd1tPleShdm-37" vertex="1">
                    <mxGeometry y="50" width="160" height="30" as="geometry"/>
                </mxCell>
                <mxCell id="rdArdedHqNd1tPleShdm-40" value="text" style="text;strokeColor=none;fillColor=none;spacingLeft=4;spacingRight=4;overflow=hidden;rotatable=0;points=[[0,0.5],[1,0.5]];portConstraint=eastwest;fontSize=12;" parent="rdArdedHqNd1tPleShdm-37" vertex="1">
                    <mxGeometry y="80" width="160" height="30" as="geometry"/>
                </mxCell>
                <mxCell id="rdArdedHqNd1tPleShdm-42" value="" style="edgeStyle=entityRelationEdgeStyle;fontSize=12;html=1;endArrow=ERmandOne;startArrow=ERmandOne;rounded=0;curved=1;exitX=1.031;exitY=0.267;exitDx=0;exitDy=0;exitPerimeter=0;entryX=0;entryY=0.5;entryDx=0;entryDy=0;" parent="1" source="rdArdedHqNd1tPleShdm-10" target="rdArdedHqNd1tPleShdm-39" edge="1">
                    <mxGeometry width="100" height="100" relative="1" as="geometry">
                        <mxPoint x="650" y="720" as="sourcePoint"/>
                        <mxPoint x="750" y="620" as="targetPoint"/>
                    </mxGeometry>
                </mxCell>
                <mxCell id="rdArdedHqNd1tPleShdm-44" value="" style="edgeStyle=entityRelationEdgeStyle;fontSize=12;html=1;endArrow=ERoneToMany;rounded=0;entryX=0.019;entryY=0;entryDx=0;entryDy=0;entryPerimeter=0;" parent="1" source="rdArdedHqNd1tPleShdm-39" target="rdArdedHqNd1tPleShdm-35" edge="1">
                    <mxGeometry width="100" height="100" relative="1" as="geometry">
                        <mxPoint x="1000.9200000000001" y="637.5" as="sourcePoint"/>
                        <mxPoint x="1070" y="622.5" as="targetPoint"/>
                    </mxGeometry>
                </mxCell>
                <mxCell id="rdArdedHqNd1tPleShdm-45" value="info_app_cards" style="swimlane;fontStyle=0;childLayout=stackLayout;horizontal=1;startSize=20;horizontalStack=0;resizeParent=1;resizeParentMax=0;resizeLast=0;collapsible=1;marginBottom=0;align=center;fontSize=14;" parent="1" vertex="1">
                    <mxGeometry x="190" y="1070" width="160" height="200" as="geometry">
                        <mxRectangle x="80" y="550" width="80" height="30" as="alternateBounds"/>
                    </mxGeometry>
                </mxCell>
                <mxCell id="rdArdedHqNd1tPleShdm-46" value="id" style="text;strokeColor=none;fillColor=none;spacingLeft=4;spacingRight=4;overflow=hidden;rotatable=0;points=[[0,0.5],[1,0.5]];portConstraint=eastwest;fontSize=12;" parent="rdArdedHqNd1tPleShdm-45" vertex="1">
                    <mxGeometry y="20" width="160" height="30" as="geometry"/>
                </mxCell>
                <mxCell id="rdArdedHqNd1tPleShdm-47" value="title" style="text;strokeColor=none;fillColor=none;spacingLeft=4;spacingRight=4;overflow=hidden;rotatable=0;points=[[0,0.5],[1,0.5]];portConstraint=eastwest;fontSize=12;" parent="rdArdedHqNd1tPleShdm-45" vertex="1">
                    <mxGeometry y="50" width="160" height="30" as="geometry"/>
                </mxCell>
                <mxCell id="rdArdedHqNd1tPleShdm-48" value="hero" style="text;strokeColor=none;fillColor=none;spacingLeft=4;spacingRight=4;overflow=hidden;rotatable=0;points=[[0,0.5],[1,0.5]];portConstraint=eastwest;fontSize=12;" parent="rdArdedHqNd1tPleShdm-45" vertex="1">
                    <mxGeometry y="80" width="160" height="30" as="geometry"/>
                </mxCell>
                <mxCell id="rdArdedHqNd1tPleShdm-50" value="link" style="text;strokeColor=none;fillColor=none;spacingLeft=4;spacingRight=4;overflow=hidden;rotatable=0;points=[[0,0.5],[1,0.5]];portConstraint=eastwest;fontSize=12;" parent="rdArdedHqNd1tPleShdm-45" vertex="1">
                    <mxGeometry y="110" width="160" height="30" as="geometry"/>
                </mxCell>
                <mxCell id="rdArdedHqNd1tPleShdm-51" value="app_button_img" style="text;strokeColor=none;fillColor=none;spacingLeft=4;spacingRight=4;overflow=hidden;rotatable=0;points=[[0,0.5],[1,0.5]];portConstraint=eastwest;fontSize=12;" parent="rdArdedHqNd1tPleShdm-45" vertex="1">
                    <mxGeometry y="140" width="160" height="30" as="geometry"/>
                </mxCell>
                <mxCell id="rdArdedHqNd1tPleShdm-52" value="app_button_dark_img" style="text;strokeColor=none;fillColor=none;spacingLeft=4;spacingRight=4;overflow=hidden;rotatable=0;points=[[0,0.5],[1,0.5]];portConstraint=eastwest;fontSize=12;" parent="rdArdedHqNd1tPleShdm-45" vertex="1">
                    <mxGeometry y="170" width="160" height="30" as="geometry"/>
                </mxCell>
                <mxCell id="rdArdedHqNd1tPleShdm-55" value="" style="edgeStyle=entityRelationEdgeStyle;fontSize=12;html=1;endArrow=ERoneToMany;rounded=0;curved=1;exitX=0.375;exitY=1;exitDx=0;exitDy=0;exitPerimeter=0;entryX=0;entryY=0.5;entryDx=0;entryDy=0;" parent="1" source="rdArdedHqNd1tPleShdm-23" target="rdArdedHqNd1tPleShdm-46" edge="1">
                    <mxGeometry width="100" height="100" relative="1" as="geometry">
                        <mxPoint x="120" y="1020" as="sourcePoint"/>
                        <mxPoint x="150" y="1070" as="targetPoint"/>
                    </mxGeometry>
                </mxCell>
                <mxCell id="rdArdedHqNd1tPleShdm-64" value="" style="edgeStyle=entityRelationEdgeStyle;fontSize=12;html=1;endArrow=ERoneToMany;rounded=0;exitX=1;exitY=0.5;exitDx=0;exitDy=0;entryX=0.006;entryY=-0.067;entryDx=0;entryDy=0;entryPerimeter=0;" parent="1" source="rdArdedHqNd1tPleShdm-21" target="rdArdedHqNd1tPleShdm-69" edge="1">
                    <mxGeometry width="100" height="100" relative="1" as="geometry">
                        <mxPoint x="269.9999999999998" y="955.01" as="sourcePoint"/>
                        <mxPoint x="320.96000000000004" y="890" as="targetPoint"/>
                    </mxGeometry>
                </mxCell>
                <mxCell id="rdArdedHqNd1tPleShdm-65" value="info_about_cards" style="swimlane;fontStyle=0;childLayout=stackLayout;horizontal=1;startSize=20;horizontalStack=0;resizeParent=1;resizeParentMax=0;resizeLast=0;collapsible=1;marginBottom=0;align=center;fontSize=14;" parent="1" vertex="1">
                    <mxGeometry x="340" y="785" width="160" height="200" as="geometry">
                        <mxRectangle x="80" y="550" width="80" height="30" as="alternateBounds"/>
                    </mxGeometry>
                </mxCell>
                <mxCell id="rdArdedHqNd1tPleShdm-66" value="id" style="text;strokeColor=none;fillColor=none;spacingLeft=4;spacingRight=4;overflow=hidden;rotatable=0;points=[[0,0.5],[1,0.5]];portConstraint=eastwest;fontSize=12;" parent="rdArdedHqNd1tPleShdm-65" vertex="1">
                    <mxGeometry y="20" width="160" height="30" as="geometry"/>
                </mxCell>
                <mxCell id="rdArdedHqNd1tPleShdm-67" value="title" style="text;strokeColor=none;fillColor=none;spacingLeft=4;spacingRight=4;overflow=hidden;rotatable=0;points=[[0,0.5],[1,0.5]];portConstraint=eastwest;fontSize=12;" parent="rdArdedHqNd1tPleShdm-65" vertex="1">
                    <mxGeometry y="50" width="160" height="30" as="geometry"/>
                </mxCell>
                <mxCell id="rdArdedHqNd1tPleShdm-69" value="card_text" style="text;strokeColor=none;fillColor=none;spacingLeft=4;spacingRight=4;overflow=hidden;rotatable=0;points=[[0,0.5],[1,0.5]];portConstraint=eastwest;fontSize=12;" parent="rdArdedHqNd1tPleShdm-65" vertex="1">
                    <mxGeometry y="80" width="160" height="30" as="geometry"/>
                </mxCell>
                <mxCell id="3fxrURebH0TkCG1Jq55x-2" value="card_prev_text" style="text;strokeColor=none;fillColor=none;spacingLeft=4;spacingRight=4;overflow=hidden;rotatable=0;points=[[0,0.5],[1,0.5]];portConstraint=eastwest;fontSize=12;" parent="rdArdedHqNd1tPleShdm-65" vertex="1">
                    <mxGeometry y="110" width="160" height="30" as="geometry"/>
                </mxCell>
                <mxCell id="3fxrURebH0TkCG1Jq55x-3" value="hero" style="text;strokeColor=none;fillColor=none;spacingLeft=4;spacingRight=4;overflow=hidden;rotatable=0;points=[[0,0.5],[1,0.5]];portConstraint=eastwest;fontSize=12;" parent="rdArdedHqNd1tPleShdm-65" vertex="1">
                    <mxGeometry y="140" width="160" height="30" as="geometry"/>
                </mxCell>
                <mxCell id="rdArdedHqNd1tPleShdm-70" value="button_id &lt;arr&gt;" style="text;strokeColor=none;fillColor=none;spacingLeft=4;spacingRight=4;overflow=hidden;rotatable=0;points=[[0,0.5],[1,0.5]];portConstraint=eastwest;fontSize=12;" parent="rdArdedHqNd1tPleShdm-65" vertex="1">
                    <mxGeometry y="170" width="160" height="30" as="geometry"/>
                </mxCell>
                <mxCell id="rdArdedHqNd1tPleShdm-72" value="info_about_blocks" style="swimlane;fontStyle=0;childLayout=stackLayout;horizontal=1;startSize=20;horizontalStack=0;resizeParent=1;resizeParentMax=0;resizeLast=0;collapsible=1;marginBottom=0;align=center;fontSize=14;" parent="1" vertex="1">
                    <mxGeometry x="667" y="800" width="160" height="230" as="geometry">
                        <mxRectangle x="80" y="550" width="80" height="30" as="alternateBounds"/>
                    </mxGeometry>
                </mxCell>
                <mxCell id="rdArdedHqNd1tPleShdm-73" value="id" style="text;strokeColor=none;fillColor=none;spacingLeft=4;spacingRight=4;overflow=hidden;rotatable=0;points=[[0,0.5],[1,0.5]];portConstraint=eastwest;fontSize=12;" parent="rdArdedHqNd1tPleShdm-72" vertex="1">
                    <mxGeometry y="20" width="160" height="30" as="geometry"/>
                </mxCell>
                <mxCell id="rdArdedHqNd1tPleShdm-77" value="about_card_id" style="text;strokeColor=none;fillColor=none;spacingLeft=4;spacingRight=4;overflow=hidden;rotatable=0;points=[[0,0.5],[1,0.5]];portConstraint=eastwest;fontSize=12;" parent="rdArdedHqNd1tPleShdm-72" vertex="1">
                    <mxGeometry y="50" width="160" height="30" as="geometry"/>
                </mxCell>
                <mxCell id="3fxrURebH0TkCG1Jq55x-1" value="position" style="text;strokeColor=none;fillColor=none;spacingLeft=4;spacingRight=4;overflow=hidden;rotatable=0;points=[[0,0.5],[1,0.5]];portConstraint=eastwest;fontSize=12;" parent="rdArdedHqNd1tPleShdm-72" vertex="1">
                    <mxGeometry y="80" width="160" height="30" as="geometry"/>
                </mxCell>
                <mxCell id="rdArdedHqNd1tPleShdm-74" value="title" style="text;strokeColor=none;fillColor=none;spacingLeft=4;spacingRight=4;overflow=hidden;rotatable=0;points=[[0,0.5],[1,0.5]];portConstraint=eastwest;fontSize=12;" parent="rdArdedHqNd1tPleShdm-72" vertex="1">
                    <mxGeometry y="110" width="160" height="30" as="geometry"/>
                </mxCell>
                <mxCell id="rdArdedHqNd1tPleShdm-75" value="text" style="text;strokeColor=none;fillColor=none;spacingLeft=4;spacingRight=4;overflow=hidden;rotatable=0;points=[[0,0.5],[1,0.5]];portConstraint=eastwest;fontSize=12;" parent="rdArdedHqNd1tPleShdm-72" vertex="1">
                    <mxGeometry y="140" width="160" height="30" as="geometry"/>
                </mxCell>
                <mxCell id="rdArdedHqNd1tPleShdm-78" value="hero &lt;arr&gt;" style="text;strokeColor=none;fillColor=none;spacingLeft=4;spacingRight=4;overflow=hidden;rotatable=0;points=[[0,0.5],[1,0.5]];portConstraint=eastwest;fontSize=12;" parent="rdArdedHqNd1tPleShdm-72" vertex="1">
                    <mxGeometry y="170" width="160" height="30" as="geometry"/>
                </mxCell>
                <mxCell id="rdArdedHqNd1tPleShdm-76" value="button_id &lt;arr&gt;" style="text;strokeColor=none;fillColor=none;spacingLeft=4;spacingRight=4;overflow=hidden;rotatable=0;points=[[0,0.5],[1,0.5]];portConstraint=eastwest;fontSize=12;" parent="rdArdedHqNd1tPleShdm-72" vertex="1">
                    <mxGeometry y="200" width="160" height="30" as="geometry"/>
                </mxCell>
                <mxCell id="rdArdedHqNd1tPleShdm-79" value="" style="edgeStyle=entityRelationEdgeStyle;fontSize=12;html=1;endArrow=ERoneToMany;rounded=0;exitX=0.993;exitY=-0.055;exitDx=0;exitDy=0;entryX=0;entryY=0.5;entryDx=0;entryDy=0;exitPerimeter=0;" parent="1" source="rdArdedHqNd1tPleShdm-69" target="rdArdedHqNd1tPleShdm-77" edge="1">
                    <mxGeometry width="100" height="100" relative="1" as="geometry">
                        <mxPoint x="725.9999999999998" y="887.4999999999998" as="sourcePoint"/>
                        <mxPoint x="826.9599999999998" y="852.4999999999998" as="targetPoint"/>
                    </mxGeometry>
                </mxCell>
                <mxCell id="rdArdedHqNd1tPleShdm-82" value="" style="edgeStyle=entityRelationEdgeStyle;fontSize=12;html=1;endArrow=ERmany;startArrow=ERmany;rounded=0;entryX=-0.003;entryY=0.239;entryDx=0;entryDy=0;entryPerimeter=0;exitX=1.012;exitY=0.063;exitDx=0;exitDy=0;exitPerimeter=0;" parent="1" source="v_IM4eJg1uwsnEVhw5GO-8" target="rdArdedHqNd1tPleShdm-76" edge="1">
                    <mxGeometry width="100" height="100" relative="1" as="geometry">
                        <mxPoint x="690" y="1140" as="sourcePoint"/>
                        <mxPoint x="790" y="1040" as="targetPoint"/>
                    </mxGeometry>
                </mxCell>
                <mxCell id="rdArdedHqNd1tPleShdm-83" value="" style="edgeStyle=entityRelationEdgeStyle;fontSize=12;html=1;endArrow=ERmany;startArrow=ERmany;rounded=0;exitX=1.034;exitY=0.141;exitDx=0;exitDy=0;exitPerimeter=0;" parent="1" source="v_IM4eJg1uwsnEVhw5GO-6" target="rdArdedHqNd1tPleShdm-70" edge="1">
                    <mxGeometry width="100" height="100" relative="1" as="geometry">
                        <mxPoint x="571.2" y="1144.72" as="sourcePoint"/>
                        <mxPoint x="668.8" y="959.9999999999999" as="targetPoint"/>
                    </mxGeometry>
                </mxCell>
                <mxCell id="rdArdedHqNd1tPleShdm-85" value="" style="edgeStyle=entityRelationEdgeStyle;fontSize=12;html=1;endArrow=ERmany;startArrow=ERmany;rounded=0;entryX=0;entryY=0.5;entryDx=0;entryDy=0;exitX=1;exitY=0.5;exitDx=0;exitDy=0;" parent="1" source="rdArdedHqNd1tPleShdm-23" target="v_IM4eJg1uwsnEVhw5GO-7" edge="1">
                    <mxGeometry width="100" height="100" relative="1" as="geometry">
                        <mxPoint x="382.4000000000001" y="1214.72" as="sourcePoint"/>
                        <mxPoint x="480" y="1029.9999999999998" as="targetPoint"/>
                    </mxGeometry>
                </mxCell>
                <mxCell id="rdArdedHqNd1tPleShdm-87" value="" style="edgeStyle=orthogonalEdgeStyle;fontSize=12;html=1;endArrow=ERmandOne;startArrow=ERmandOne;rounded=0;exitX=1;exitY=0.5;exitDx=0;exitDy=0;curved=1;entryX=0.585;entryY=-0.036;entryDx=0;entryDy=0;entryPerimeter=0;" parent="1" source="rdArdedHqNd1tPleShdm-26" target="rdArdedHqNd1tPleShdm-8" edge="1">
                    <mxGeometry width="100" height="100" relative="1" as="geometry">
                        <mxPoint x="200" y="516" as="sourcePoint"/>
                        <mxPoint x="630" y="540" as="targetPoint"/>
                        <Array as="points">
                            <mxPoint x="230" y="510"/>
                            <mxPoint x="630" y="510"/>
                            <mxPoint x="630" y="556"/>
                        </Array>
                    </mxGeometry>
                </mxCell>
                <mxCell id="rdArdedHqNd1tPleShdm-94" value="" style="edgeStyle=entityRelationEdgeStyle;fontSize=12;html=1;endArrow=ERoneToMany;rounded=0;curved=1;entryX=0.619;entryY=1.2;entryDx=0;entryDy=0;entryPerimeter=0;exitX=0;exitY=0.5;exitDx=0;exitDy=0;" parent="1" source="rdArdedHqNd1tPleShdm-35" target="rdArdedHqNd1tPleShdm-10" edge="1">
                    <mxGeometry width="100" height="100" relative="1" as="geometry">
                        <mxPoint x="980" y="860" as="sourcePoint"/>
                        <mxPoint x="702.0799999999999" y="673.01" as="targetPoint"/>
                    </mxGeometry>
                </mxCell>
            </root>
        </mxGraphModel>
    </diagram>
</mxfile>